<svg width="750" height="186" xmlns="http://www.w3.org/2000/svg">
  <style>
    @media (prefers-color-scheme: dark) {
      path.logo-text {
        fill: antiquewhite;
      }
    }
  </style>
  <g fill="none" fill-rule="evenodd">
    <path class="logo-text" fill="#2E271E"
      d="M.354 41.307H82.83v20.62H20.973v123.716H.353V41.307zm82.477 20.62h20.619v61.859H82.83V61.928h.001z" />
    <path class="logo-text" fill="#2E271E" d="M41.588 144.42h41.24v-20.632h-41.24z" />
    <path class="logo-text" fill="#2E271E" fill-rule="nonzero"
      d="M141.028.083h20.617v144.322h-20.617V.083zm79.247 41.235h82.47v103.087h-20.618v-82.47h-61.85V41.318h-.002zm-20.617 20.617h20.617v61.853h-20.617V61.936zm20.617 61.852h41.235v20.618h-41.235v-20.618zM344.015.083h20.616v41.235h41.236v20.617H364.63v61.853h41.236v20.618h-61.853V.083zm120.494 123.701h82.48v20.621h-82.48v-20.62zm-20.635 0V61.926h20.635v61.858h-20.635zm41.25-41.237h41.23V61.926h20.635v41.24h-61.865V82.546zm-20.615-41.24h61.845v20.619h-61.845v-20.62zm120.48.011h61.852v20.617h-41.235v82.47H584.99V41.318zm61.852 20.617h20.617v82.47h-20.617v-82.47z" />
    <path class="logo-text" fill="#2E271E" d="M708.712 164.994h20.632V20.675h-20.632z" />
    <path class="logo-text" fill="#2E271E"
      d="M688.093.064h20.632v20.632h-20.632V.064zm41.25 0h20.632v20.632h-20.632V.064zm-41.25 185.582h20.632v-20.632h-20.632v20.632zm41.25 0h20.632v-20.632h-20.632v20.632z" />
    <path fill="#F6489B" d="M41.593 165.009h120.063v20.632H41.593z" />
    <path fill="#00AFE7" d="M199.68 165.009h206.227v20.632H199.68z" />
    <path fill="#FFEC27" d="M443.933 165.009h223.592v20.632H443.933z" />
  </g>
</svg>